<svg data-v-0dd9719b="" version="1.0" xmlns="http://www.w3.org/2000/svg" xmlns:xlink="http://www.w3.org/1999/xlink" width="100%" height="100%" viewBox="0 0 340.000000 250.000000" preserveAspectRatio="xMidYMid meet" color-interpolation-filters="sRGB" style="margin: auto;"> <rect data-v-0dd9719b="" x="0" y="0" width="100%" height="100%" fill="#fff" fill-opacity="1" class="background"></rect> <rect data-v-0dd9719b="" x="0" y="0" width="100%" height="100%" fill="url(#watermark)" fill-opacity="1" class="watermarklayer"></rect> <g data-v-0dd9719b="" fill="#e83700" class="icon-text-wrapper icon-svg-group iconsvg" transform="translate(62.349998474121094,92.57598114013672)"><g class="iconsvg-imagesvg" transform="translate(0,0)"><g><rect fill="#e83700" fill-opacity="0" stroke-width="2" x="0" y="0" width="60" height="64.84803942760797" class="image-rect"></rect> <svg x="0" y="0" width="60" height="64.84803942760797" filtersec="colorsb8445201779" class="image-svg-svg primary" style="overflow: visible;"><svg xmlns="http://www.w3.org/2000/svg" viewBox="-0.001436872174963355 -0.0015900096623227 120.52327728271484 130.26199340820312"><defs><linearGradient id="a7d2fbaa2-c479-4c61-bfa0-c5b2ae0ab177" x1="43.06" y1="140.63" x2="43.06" y2="30.65" gradientUnits="userSpaceOnUse"><stop offset="0" stop-color="#ffbc00"></stop><stop offset="1" stop-color="#e83700"></stop></linearGradient><linearGradient id="b8c62e088-3218-4ef0-9eb5-ec507eb9c79a" x1="43.79" y1="140.89" x2="43.79" y2="30.71" gradientUnits="userSpaceOnUse"><stop offset="0" stop-color="#ffbc00"></stop><stop offset="1" stop-color="#e83700"></stop></linearGradient><linearGradient id="c0920b4be-1dd0-4edd-819a-e995ec60470f" x1="16.93" y1="140.82" x2="16.93" y2="30.69" gradientUnits="userSpaceOnUse"><stop offset="0" stop-color="#ffbc00"></stop><stop offset="1" stop-color="#e83700"></stop></linearGradient><linearGradient id="dacaa7238-0b37-49b1-97bc-dc628b0b185d" x1="41.67" y1="141.01" x2="41.67" y2="30.73" gradientUnits="userSpaceOnUse"><stop offset="0" stop-color="#ffbc00"></stop><stop offset="1" stop-color="#e83700"></stop></linearGradient><linearGradient id="e7da32331-a551-4f45-a6a9-e9611f85b50e" x1="42.38" y1="140.53" x2="42.38" y2="30.63" gradientUnits="userSpaceOnUse"><stop offset="0" stop-color="#ffbc00"></stop><stop offset="1" stop-color="#e83700"></stop></linearGradient><linearGradient id="f3b6407ca-d12b-4f2e-a3b1-4e5b25aeab6b" x1="103.61" y1="-17.23" x2="103.61" y2="103.28" gradientUnits="userSpaceOnUse"><stop offset="0" stop-color="#ffbc00"></stop><stop offset="1" stop-color="#e83700"></stop></linearGradient></defs><g><g><path d="M42.8.76c.17.07.35.16.52.25-.17-.09-.32-.18-.52-.25z" fill="url(#a7d2fbaa2-c479-4c61-bfa0-c5b2ae0ab177)"></path><path d="M44.11 1.46z" fill="url(#b8c62e088-3218-4ef0-9eb5-ec507eb9c79a)"></path><path d="M16.28 16.28H33.6C33.28 15.2 29 1.72 15.59.1L7.9.08a8.48 8.48 0 0 0-2.34.31A8.29 8.29 0 0 1 8 0h.11a7.81 7.81 0 0 0-5.83 2.44A7.89 7.89 0 0 0 0 8.14v113.93a7.93 7.93 0 0 0 2.28 5.7 7.81 7.81 0 0 0 5.86 2.44h7.69c14-1.69 18-16.26 18-16.26H16.28z" fill="url(#c0920b4be-1dd0-4edd-819a-e995ec60470f)"></path><path d="M41.34.25c.22.06.45.12.67.2-.22-.08-.45-.14-.67-.2z" fill="url(#dacaa7238-0b37-49b1-97bc-dc628b0b185d)"></path><path d="M42.09.48c.19.06.38.14.57.22-.19-.08-.38-.16-.57-.22z" fill="url(#e7da32331-a551-4f45-a6a9-e9611f85b50e)"></path><path d="M57.08 32.85l-10-27.6a1 1 0 0 1-.08-.12 2 2 0 0 0-.1-.21c0-.09-.08-.19-.13-.28A8.62 8.62 0 0 0 44.88 2c-.24-.18-.5-.35-.77-.52A9.44 9.44 0 0 0 41.33.25 9.85 9.85 0 0 0 39 .12L8 0a8.29 8.29 0 0 0-2.44.39A8.48 8.48 0 0 1 7.9.08h7.69C29 1.72 33.28 15.2 33.6 16.28h.17l14.54 40.56z" fill="#ffc200"></path><path d="M118.26 2.48A7.83 7.83 0 0 0 112.4 0h-7.69c-14 1.69-18 16.25-18 16.25h17.58V114H86.83s4.07 14.57 18 16.26h7.55a8.06 8.06 0 0 0 8.14-8.14V8.18a7.89 7.89 0 0 0-2.26-5.7z" fill="url(#f3b6407ca-d12b-4f2e-a3b1-4e5b25aeab6b)"></path><path d="M76.43 128.78a9 9 0 0 0 3.57 1.37 9.31 9.31 0 0 0 1.4 0l30.73.09h-7.27c-13.95-1.69-18-16.26-18-16.26h-.07l-15.15-40.9L63 96.66 73.17 125a7.19 7.19 0 0 0 3.26 3.78z" fill="#ffc200"></path><path d="M112.27 0l-31 .08a7.48 7.48 0 0 0-7.77 4.47c-.05.09-.09.19-.13.28s-.07.14-.1.22l-.06.12L60.3 40.85l-8.79 24.34-17.66 48.74s-4.06 14.57-18 16.26H8.16l31.17-.08a8 8 0 0 0 5.37-1.4 7.74 7.74 0 0 0 2.91-3.71l12.85-35.64L69.19 65l6.88-19.11 4.7-13v-.07l6-16.54s4.07-14.56 18-16.25h7.69a8.82 8.82 0 0 1 2.34.31 8.57 8.57 0 0 0-2.53-.34z" fill="#ffc200"></path></g></g></svg></svg> <!----></g></g> <g transform="translate(67,2.0649566650390625)"><g data-gra="path-name" fill-rule="" class="tp-name iconsvg-namesvg" transform="translate(0,0)"><g transform="scale(1)"><g><path d="M14.4 3.6L14.4 3.6Q14.2 2.4 13.65 0.93 13.1-0.55 12.95-0.8L12.95-0.8Q17.1-0.7 20.4-0.7L20.4-0.7Q21-0.7 21.55-0.7 22.1-0.7 22.1-2.3L22.1-2.3 22.1-40.9 28.95-40.9 28.95-2.3Q28.95-0.35 28.38 0.78 27.8 1.9 26.05 2.55 24.3 3.2 21.65 3.4 19 3.6 14.4 3.6ZM49.6-8.85L43.1-6Q42.15-11.2 39.6-17.35 37.05-23.5 34.4-28.15L34.4-28.15 39.9-30.4Q43.55-24.35 46.18-18.48 48.8-12.6 49.6-8.85L49.6-8.85ZM6.45-6.15L6.45-6.15Q4.05-7.95 1.55-9.5L1.55-9.5Q4.1-12.7 6.18-18.48 8.25-24.25 9.15-29.65L9.15-29.65 16.05-28.4Q13.05-14.95 6.45-6.15ZM56.6 4.5L56.6 4.5Q55.45 2.5 54.43 1.5 53.4 0.5 53.35 0.45L53.35 0.45Q65.4-7.2 66.5-26.75L66.5-26.75 53.95-26.75 53.95-30.75 66.8-30.75Q66.95-36.5 66.95-41.5L66.95-41.5 73.9-41.5Q73.9-36.55 73.65-30.75L73.65-30.75 88.15-30.75 88.15-3.9Q88.15-1.25 88.85-1.25L88.85-1.25 92.95-1.25Q93.75-1.25 93.9-10.75L93.9-10.75Q96.6-8.65 97.7-8.15 98.8-7.65 100.05-7.35L100.05-7.35Q99.8-2.2 98.63 0.2 97.45 2.6 93.4 2.6L93.4 2.6 88.1 2.6Q83.95 2.6 82.72 1.07 81.5-0.45 81.5-3.9L81.5-3.9 81.5-26.75 73.35-26.75Q72.75-17.6 69.47-9.75 66.2-1.9 56.6 4.5ZM116-25.4L138.2-25.4 138.2-29.7 116-29.7 116-25.4ZM116-32.55L138.2-32.55 138.2-36.7 116-36.7 116-32.55ZM149.85-1.05L149.85 2.35 104.65 2.35 104.65-1.05 124-1.05 124-6.25 110.6-6.25 110.6-9.3 124-9.3 124-13.85 114.25-13.85Q112.1-11.15 108.6-8.05L108.6-8.05Q106.85-9.6 105.72-10.43 104.6-11.25 104.55-11.3L104.55-11.3Q109.2-14.9 112.8-22.35L112.8-22.35 109.65-22.35 109.65-39.75 144.8-39.75 144.8-22.35 112.4-22.35 118.6-20.55 116.7-17.15 124-17.15 124-20.75 130.6-20.75 130.6-17.15 146.7-17.15 146.7-13.85 130.6-13.85 130.6-9.3 144.55-9.3 144.55-6.25 130.6-6.25 130.6-1.05 149.85-1.05Z" transform="translate(-1.5499999523162842, 41.5)"></path></g> <!----> <!----> <!----> <!----> <!----> <!----> <!----></g></g> <g data-gra="path-slogan" fill-rule="" class="tp-slogan iconsvg-slogansvg" fill="#e83700" transform="translate(5,52)"><rect x="0" height="1" y="3.8600001335144043" width="49.415000915527344"></rect> <rect height="1" y="3.8600001335144043" width="49.415000915527344" x="88.88500213623047"></rect> <g transform="translate(52.415000915527344,0)"><g transform="scale(1)"><path d="M7.64-8.58L4.73-4.41L7.78 0L6.33 0L3.98-3.52L1.64 0L0.23 0L3.33-4.41L0.42-8.58L1.88-8.58L4.03-5.30L6.23-8.58L7.64-8.58ZM8.16-1.92L8.16-2.77L9.23-2.77L9.23-2.16Q9.23-0.75 10.55-0.75L10.55-0.75Q11.91-0.75 11.91-2.25L11.91-2.25L11.91-8.58L13.08-8.58L13.08-2.30Q13.03 0.09 10.59 0.14L10.59 0.14Q8.30 0.09 8.16-1.92L8.16-1.92ZM15.05-8.58L16.22-8.58L16.22 0L15.05 0L15.05-8.58ZM23.86-3.19L23.86-8.58L25.03-8.58L25.03-3.05Q24.89 0.05 21.52 0.14L21.52 0.14Q18.38 0.05 18.23-2.86L18.23-2.86L18.23-8.58L19.41-8.58L19.41-3.19Q19.45-0.84 21.56-0.80L21.56-0.80Q23.86-0.84 23.86-3.19L23.86-3.19ZM33.56-8.58L30.66-4.41L33.70 0L32.25 0L29.91-3.52L27.56 0L26.16 0L29.25-4.41L26.34-8.58L27.80-8.58L29.95-5.30L32.16-8.58L33.56-8.58Z" transform="translate(-0.234375, 8.578125)"></path></g></g></g></g></g><defs v-gra="od"></defs></svg>